<svg width="40" height="40" viewBox="0 0 40 40" fill="none" xmlns="http://www.w3.org/2000/svg">
<mask id="path-1-inside-1_37_298" fill="white">
<path d="M35.9165 17.9582C35.9165 8.04035 27.876 0 17.9582 0C8.04036 0 0 8.04035 0 17.9582C0 27.876 8.04036 35.9164 17.9582 35.9164C27.876 35.9164 35.9165 27.876 35.9165 17.9582ZM1.63256 17.9582C1.63256 8.94155 8.94155 1.63256 17.9582 1.63256C26.9749 1.63256 34.2839 8.94155 34.2839 17.9582C34.2839 26.9749 26.9749 34.2839 17.9582 34.2839C8.94155 34.2839 1.63256 26.9749 1.63256 17.9582Z"/>
</mask>
<path d="M37.9165 17.9582C37.9165 6.93578 28.9806 -2 17.9582 -2V2C26.7715 2 33.9165 9.14493 33.9165 17.9582H37.9165ZM17.9582 -2C6.93579 -2 -2 6.93578 -2 17.9582H2C2 9.14492 9.14493 2 17.9582 2V-2ZM-2 17.9582C-2 28.9806 6.93578 37.9164 17.9582 37.9164V33.9164C9.14493 33.9164 2 26.7715 2 17.9582H-2ZM17.9582 37.9164C28.9806 37.9164 37.9165 28.9806 37.9165 17.9582H33.9165C33.9165 26.7715 26.7715 33.9164 17.9582 33.9164V37.9164ZM3.63256 17.9582C3.63256 10.0461 10.0461 3.63256 17.9582 3.63256V-0.367445C7.83698 -0.367445 -0.367445 7.83698 -0.367445 17.9582H3.63256ZM17.9582 3.63256C25.8703 3.63256 32.2839 10.0461 32.2839 17.9582H36.2839C36.2839 7.83698 28.0795 -0.367445 17.9582 -0.367445V3.63256ZM32.2839 17.9582C32.2839 25.8703 25.8703 32.2839 17.9582 32.2839V36.2839C28.0795 36.2839 36.2839 28.0795 36.2839 17.9582H32.2839ZM17.9582 32.2839C10.0461 32.2839 3.63256 25.8703 3.63256 17.9582H-0.367445C-0.367445 28.0795 7.83698 36.2839 17.9582 36.2839V32.2839Z" fill="white" mask="url(#path-1-inside-1_37_298)"/>
<path d="M18.4637 27.707V18.9727H21.0062L21.4079 16.0783H18.4637V14.6269C18.4637 13.8717 18.6821 13.1508 19.6385 13.1508H21.5499V10.2618H18.8363C16.5547 10.2618 15.9321 11.9649 15.9321 14.3257V16.0769H14.3666V18.9727H15.9321V27.707H18.4637Z" fill="white"/>
</svg>
