<svg width="40" height="40" viewBox="0 0 40 40" fill="none" xmlns="http://www.w3.org/2000/svg">
<g clip-path="url(#clip0_37_288)">
<mask id="path-1-inside-1_37_288" fill="white">
<path d="M35.9165 18.0262C35.9165 8.10829 27.876 0.0679321 17.9582 0.0679321C8.04036 0.0679321 0 8.10829 0 18.0262C0 27.944 8.04036 35.9844 17.9582 35.9844C27.876 35.9844 35.9165 27.944 35.9165 18.0262ZM1.63256 18.0262C1.63256 9.00948 8.94155 1.70049 17.9582 1.70049C26.9749 1.70049 34.2839 9.00948 34.2839 18.0262C34.2839 27.0428 26.9749 34.3518 17.9582 34.3518C8.94155 34.3518 1.63256 27.0428 1.63256 18.0262Z"/>
</mask>
<path d="M37.9165 18.0262C37.9165 7.00371 28.9806 -1.93207 17.9582 -1.93207V2.06793C26.7715 2.06793 33.9165 9.21286 33.9165 18.0262H37.9165ZM17.9582 -1.93207C6.93579 -1.93207 -2 7.00372 -2 18.0262H2C2 9.21286 9.14493 2.06793 17.9582 2.06793V-1.93207ZM-2 18.0262C-2 29.0485 6.93578 37.9844 17.9582 37.9844V33.9844C9.14493 33.9844 2 26.8394 2 18.0262H-2ZM17.9582 37.9844C28.9806 37.9844 37.9165 29.0485 37.9165 18.0262H33.9165C33.9165 26.8394 26.7715 33.9844 17.9582 33.9844V37.9844ZM3.63256 18.0262C3.63256 10.1141 10.0461 3.70049 17.9582 3.70049V-0.299513C7.83698 -0.299513 -0.367445 7.90491 -0.367445 18.0262H3.63256ZM17.9582 3.70049C25.8703 3.70049 32.2839 10.1141 32.2839 18.0262H36.2839C36.2839 7.90491 28.0795 -0.299513 17.9582 -0.299513V3.70049ZM32.2839 18.0262C32.2839 25.9383 25.8703 32.3518 17.9582 32.3518V36.3518C28.0795 36.3518 36.2839 28.1474 36.2839 18.0262H32.2839ZM17.9582 32.3518C10.0461 32.3518 3.63256 25.9383 3.63256 18.0262H-0.367445C-0.367445 28.1474 7.83698 36.3518 17.9582 36.3518V32.3518Z" fill="#E17BE3" mask="url(#path-1-inside-1_37_288)"/>
<path d="M18.4637 27.7749V19.0406H21.0062L21.4079 16.1462H18.4637V14.6949C18.4637 13.9396 18.6821 13.2187 19.6385 13.2187H21.5499V10.3298H18.8363C16.5547 10.3298 15.9321 12.0328 15.9321 14.3936V16.1449H14.3666V19.0406H15.9321V27.7749H18.4637Z" fill="#E17BE3"/>
</g>
<defs>
<clipPath id="clip0_37_288">
<rect width="39.2706" height="39.0679" fill="white" transform="translate(0 0.0679321)"/>
</clipPath>
</defs>
</svg>
