<svg width="40" height="40" viewBox="0 0 40 40" fill="none" xmlns="http://www.w3.org/2000/svg">
<g clip-path="url(#clip0_154_83)">
<mask id="path-1-inside-1_154_83" fill="white">
<path d="M35.9165 18.0941C35.9165 8.17622 27.876 0.135864 17.9582 0.135864C8.04036 0.135864 0 8.17622 0 18.0941C0 28.0119 8.04036 36.0523 17.9582 36.0523C27.876 36.0523 35.9165 28.0119 35.9165 18.0941ZM1.63256 18.0941C1.63256 9.07742 8.94155 1.76842 17.9582 1.76842C26.9749 1.76842 34.2839 9.07742 34.2839 18.0941C34.2839 27.1108 26.9749 34.4198 17.9582 34.4198C8.94155 34.4198 1.63256 27.1108 1.63256 18.0941Z"/>
</mask>
<path d="M37.9165 18.0941C37.9165 7.07164 28.9806 -1.86414 17.9582 -1.86414V2.13586C26.7715 2.13586 33.9165 9.28079 33.9165 18.0941H37.9165ZM17.9582 -1.86414C6.93579 -1.86414 -2 7.07165 -2 18.0941H2C2 9.28079 9.14493 2.13586 17.9582 2.13586V-1.86414ZM-2 18.0941C-2 29.1165 6.93578 38.0523 17.9582 38.0523V34.0523C9.14493 34.0523 2 26.9073 2 18.0941H-2ZM17.9582 38.0523C28.9806 38.0523 37.9165 29.1165 37.9165 18.0941H33.9165C33.9165 26.9073 26.7715 34.0523 17.9582 34.0523V38.0523ZM3.63256 18.0941C3.63256 10.182 10.0461 3.76842 17.9582 3.76842V-0.231581C7.83698 -0.231581 -0.367445 7.97285 -0.367445 18.0941H3.63256ZM17.9582 3.76842C25.8703 3.76842 32.2839 10.182 32.2839 18.0941H36.2839C36.2839 7.97285 28.0795 -0.231581 17.9582 -0.231581V3.76842ZM32.2839 18.0941C32.2839 26.0062 25.8703 32.4198 17.9582 32.4198V36.4198C28.0795 36.4198 36.2839 28.2153 36.2839 18.0941H32.2839ZM17.9582 32.4198C10.0461 32.4198 3.63256 26.0062 3.63256 18.0941H-0.367445C-0.367445 28.2153 7.83698 36.4198 17.9582 36.4198V32.4198Z" fill="#FF52C1" mask="url(#path-1-inside-1_154_83)"/>
<path d="M18.4637 27.8428V19.1086H21.0062L21.4079 16.2141H18.4637V14.7628C18.4637 14.0075 18.6821 13.2867 19.6385 13.2867H21.5499V10.3977H18.8363C16.5547 10.3977 15.9321 12.1008 15.9321 14.4615V16.2128H14.3666V19.1086H15.9321V27.8428H18.4637Z" fill="#FF52C1"/>
</g>
<defs>
<clipPath id="clip0_154_83">
<rect width="39.2706" height="39.0679" fill="white" transform="translate(0 0.135864)"/>
</clipPath>
</defs>
</svg>
