<svg width="55" height="55" viewBox="0 0 55 55" fill="none" xmlns="http://www.w3.org/2000/svg">
<path d="M41 27.5C41 20.0442 34.9558 14 27.5 14C20.0442 14 14 20.0442 14 27.5C14 34.9558 20.0442 41 27.5 41C34.9558 41 41 34.9558 41 27.5Z" stroke="white" stroke-width="27"/>
<path d="M32.63 13.0989C26.0634 13.0944 19.2134 14.5744 12.2956 16.4933C11.4178 16.6711 10.5589 17.2444 10.1078 17.9556C9.69113 18.6244 9.53891 19.2967 9.40891 20.0044C8.73669 23.7678 8.81891 27.4656 8.9578 31.5578C8.9878 32.4956 9.13113 33.6111 9.56558 34.2844C10.0256 34.9656 10.8067 35.3989 11.7434 35.5422C12.9467 35.7244 14.1434 35.8644 15.3422 35.99L15.0778 43.3856C15.0334 43.9711 15.3245 44.4622 15.6811 44.7444C16.0022 44.9867 16.3589 45.0956 16.7222 45.1222C17.4511 45.1778 18.3111 44.8611 18.7367 44.0544C20.6034 40.46 21.7745 38.8767 24.1056 36.4878C30.1945 36.6411 35.5067 36.3022 41.5189 35.8544C43.6456 35.8033 45.1078 34.0622 45.4945 32.6733C46.6445 29.0756 46.8267 24.6356 46.9478 20.1433C47 18.3633 46.3834 16.6189 45.29 15.6944C44.2489 14.8522 42.9945 14.5489 41.84 14.2367C38.6367 13.5111 35.4345 13.1211 32.63 13.0989ZM41.38 15.9111C42.5345 16.2244 43.5545 16.5278 44.1911 17.0489C45.2645 18.1856 45.2289 18.9456 45.2167 20.1733C45.0945 24.5267 44.8867 28.7544 43.9011 31.9578C43.4756 33.1511 42.7422 34.0022 41.3456 34.1278C35.2167 34.5833 29.9 34.9356 23.7411 34.7567C23.6216 34.7531 23.5027 34.7739 23.3915 34.8179C23.2803 34.8618 23.1792 34.9279 23.0945 35.0122C20.5067 37.6256 19.1834 39.4456 17.2089 43.2422C17.1645 43.3289 17.0645 43.3811 16.94 43.39C16.8622 43.3856 16.8267 43.32 16.8222 43.2644L17.0867 35.2422C17.0876 35.0256 17.0098 34.8161 16.8677 34.6525C16.7257 34.489 16.5291 34.3827 16.3145 34.3533C14.8763 34.2149 13.4421 34.0382 12.0134 33.8233C11.3967 33.7322 11.1711 33.5633 11.0022 33.3122C10.7067 32.6089 10.7111 32.1744 10.69 31.5011C10.55 27.4389 10.4856 23.8933 11.1056 20.3644C11.1667 19.84 11.3622 19.3056 11.57 18.8633C11.9145 18.3244 12.4389 18.2467 12.9678 18.0989C19.73 16.2322 26.3456 14.8356 32.5778 14.8311C35.6334 14.9389 38.8367 15.2478 41.38 15.9111ZM18.02 22.7911C17.0867 23.9067 17.1778 25.4211 17.8978 26.4367C18.2756 26.97 18.8622 27.3956 19.5745 27.4922C20.5034 27.57 21.0934 27.1922 21.7267 26.7622C22.8767 25.7644 22.9934 24.0189 22.1178 22.7567C21.906 22.448 21.6257 22.1925 21.2988 22.0101C20.9719 21.8278 20.6073 21.7235 20.2334 21.7056C19.2356 21.7144 18.5589 22.1578 18.02 22.7911ZM28.0978 21.88C27.17 21.91 26.4189 22.5522 25.9589 23.2467C25.4367 24.0356 25.13 25.03 25.5545 26.0067C26.3711 27.8778 29.1922 27.8556 30.3167 25.9511C30.8322 25.0733 30.7022 24.0756 30.3167 23.3556C29.93 22.63 29.3478 22.04 28.5022 21.9056C28.3685 21.8843 28.2331 21.8758 28.0978 21.88ZM36.28 22.0533C35.9889 22.0459 35.6981 22.078 35.4156 22.1489C34.3 22.4489 33.35 23.5978 33.4934 25.07C33.5667 25.8122 33.9056 26.5367 34.5222 27.0311C35.1378 27.5311 36.0278 27.7522 36.97 27.5611C38.05 27.3389 38.7234 26.4667 38.9445 25.6256C39.17 24.7833 39.1145 23.9278 38.5933 23.2333C38.3233 22.8732 37.9745 22.5796 37.5735 22.3751C37.1725 22.1706 36.7301 22.0605 36.28 22.0533ZM20.1589 23.4333C20.3634 23.4378 20.5278 23.5022 20.6967 23.7456C21.0745 24.2922 20.97 25.1178 20.5889 25.4511C20.2111 25.7811 19.9722 25.8122 19.8034 25.79C19.6378 25.7644 19.4689 25.6511 19.3167 25.4389C19.03 25.03 18.9434 24.3711 19.3256 23.8978C19.5256 23.6289 19.8989 23.4589 20.1589 23.4333ZM28.2189 23.6244C28.2489 23.6289 28.6134 23.8411 28.7878 24.1667C28.9611 24.4922 28.9911 24.7922 28.8267 25.07C28.3356 25.9033 27.2934 25.6767 27.1378 25.3167C27.0767 25.1778 27.1211 24.6222 27.4067 24.1933C27.6934 23.7589 28.0489 23.5978 28.2178 23.6244H28.2189ZM37.1989 24.2578C37.2511 24.3322 37.3811 24.8044 37.2811 25.1778C37.1811 25.5556 37.0167 25.7856 36.6167 25.8678C36.1056 25.9767 35.8189 25.8678 35.6011 25.6944C35.3889 25.5211 35.2411 25.2256 35.2111 24.9089C35.1334 24.1278 35.4145 23.9456 35.8622 23.8278C36.3789 23.6978 36.9645 23.9233 37.1989 24.2578Z" fill="#674BAF"/>
</svg>
