<svg width="39" height="39" viewBox="0 0 39 39" fill="none" xmlns="http://www.w3.org/2000/svg">
<g clip-path="url(#clip0_37_275)">
<path d="M23.8903 27.3796H14.8293C13.0543 27.3796 11.6154 25.9398 11.6154 24.1636V15.0968C11.6154 13.3206 13.0543 11.8807 14.8293 11.8807H23.8903C25.6653 11.8807 27.1042 13.3206 27.1042 15.0968V24.1636C27.1042 25.9398 25.6653 27.3796 23.8903 27.3796Z" stroke="#E17BE3" stroke-width="1.5" stroke-miterlimit="1" stroke-linecap="round" stroke-linejoin="round"/>
<path d="M19.3598 23.4532C21.4699 23.4532 23.1804 21.7416 23.1804 19.6302C23.1804 17.5188 21.4699 15.8071 19.3598 15.8071C17.2498 15.8071 15.5392 17.5188 15.5392 19.6302C15.5392 21.7416 17.2498 23.4532 19.3598 23.4532Z" stroke="#E17BE3" stroke-width="1.5" stroke-miterlimit="1" stroke-linecap="round" stroke-linejoin="round"/>
<path d="M23.6644 15.9738C24.2312 15.9738 24.6906 15.5143 24.6906 14.9476C24.6906 14.3808 24.2312 13.9214 23.6644 13.9214C23.0977 13.9214 22.6382 14.3808 22.6382 14.9476C22.6382 15.5143 23.0977 15.9738 23.6644 15.9738Z" fill="#E17BE3"/>
<path d="M19.4079 37.6415C29.3259 37.6415 37.3661 29.6013 37.3661 19.6833C37.3661 9.76521 29.3259 1.72504 19.4079 1.72504C9.48982 1.72504 1.44965 9.76521 1.44965 19.6833C1.44965 29.6013 9.48982 37.6415 19.4079 37.6415Z" stroke="#E17BE3" stroke-width="1.5" stroke-miterlimit="1" stroke-linecap="round" stroke-linejoin="round"/>
</g>
<defs>
<clipPath id="clip0_37_275">
<rect width="38.5694" height="38.3703" fill="white" transform="translate(0 0.3703)"/>
</clipPath>
</defs>
</svg>
