<svg width="39" height="39" viewBox="0 0 39 39" fill="none" xmlns="http://www.w3.org/2000/svg">
<g clip-path="url(#clip0_37_292)">
<path d="M23.8903 27.0093H14.8293C13.0543 27.0093 11.6154 25.5695 11.6154 23.7933V14.7265C11.6154 12.9503 13.0543 11.5104 14.8293 11.5104H23.8903C25.6653 11.5104 27.1042 12.9503 27.1042 14.7265V23.7933C27.1042 25.5695 25.6653 27.0093 23.8903 27.0093Z" stroke="white" stroke-width="1.5" stroke-miterlimit="1" stroke-linecap="round" stroke-linejoin="round"/>
<path d="M19.3598 23.0829C21.4699 23.0829 23.1804 21.3713 23.1804 19.2599C23.1804 17.1485 21.4699 15.4368 19.3598 15.4368C17.2498 15.4368 15.5392 17.1485 15.5392 19.2599C15.5392 21.3713 17.2498 23.0829 19.3598 23.0829Z" stroke="white" stroke-width="1.5" stroke-miterlimit="1" stroke-linecap="round" stroke-linejoin="round"/>
<path d="M23.6644 15.6035C24.2312 15.6035 24.6906 15.144 24.6906 14.5773C24.6906 14.0106 24.2312 13.5511 23.6644 13.5511C23.0977 13.5511 22.6382 14.0106 22.6382 14.5773C22.6382 15.144 23.0977 15.6035 23.6644 15.6035Z" fill="white"/>
<path d="M19.4079 37.2712C29.3259 37.2712 37.3661 29.231 37.3661 19.313C37.3661 9.39491 29.3259 1.35474 19.4079 1.35474C9.48982 1.35474 1.44965 9.39491 1.44965 19.313C1.44965 29.231 9.48982 37.2712 19.4079 37.2712Z" stroke="white" stroke-width="1.5" stroke-miterlimit="1" stroke-linecap="round" stroke-linejoin="round"/>
</g>
<defs>
<clipPath id="clip0_37_292">
<rect width="38.5694" height="38.3703" fill="white"/>
</clipPath>
</defs>
</svg>
