<svg width="39" height="40" viewBox="0 0 39 40" fill="none" xmlns="http://www.w3.org/2000/svg">
<g clip-path="url(#clip0_154_61)">
<path d="M23.8903 27.7499H14.8293C13.0543 27.7499 11.6154 26.3101 11.6154 24.5339V15.4671C11.6154 13.6909 13.0543 12.251 14.8293 12.251H23.8903C25.6653 12.251 27.1042 13.6909 27.1042 15.4671V24.5339C27.1042 26.3101 25.6653 27.7499 23.8903 27.7499Z" stroke="#FF52C1" stroke-width="1.5" stroke-miterlimit="1" stroke-linecap="round" stroke-linejoin="round"/>
<path d="M19.3598 23.8235C21.4699 23.8235 23.1804 22.1119 23.1804 20.0005C23.1804 17.8891 21.4699 16.1774 19.3598 16.1774C17.2498 16.1774 15.5392 17.8891 15.5392 20.0005C15.5392 22.1119 17.2498 23.8235 19.3598 23.8235Z" stroke="#FF52C1" stroke-width="1.5" stroke-miterlimit="1" stroke-linecap="round" stroke-linejoin="round"/>
<path d="M23.6644 16.3441C24.2312 16.3441 24.6906 15.8846 24.6906 15.3179C24.6906 14.7511 24.2312 14.2917 23.6644 14.2917C23.0977 14.2917 22.6382 14.7511 22.6382 15.3179C22.6382 15.8846 23.0977 16.3441 23.6644 16.3441Z" fill="#FF52C1"/>
<path d="M19.4079 38.0118C29.3259 38.0118 37.3661 29.9716 37.3661 20.0536C37.3661 10.1355 29.3259 2.09534 19.4079 2.09534C9.48982 2.09534 1.44965 10.1355 1.44965 20.0536C1.44965 29.9716 9.48982 38.0118 19.4079 38.0118Z" stroke="#FF52C1" stroke-width="1.5" stroke-miterlimit="1" stroke-linecap="round" stroke-linejoin="round"/>
</g>
<defs>
<clipPath id="clip0_154_61">
<rect width="38.5694" height="38.3703" fill="white" transform="translate(0 0.740601)"/>
</clipPath>
</defs>
</svg>
