<svg width="42" height="40" viewBox="0 0 42 40" fill="none" xmlns="http://www.w3.org/2000/svg">
<path d="M37.3695 19.1073C37.3695 9.18922 29.3293 1.14905 19.4112 1.14905C9.49317 1.14905 1.453 9.18922 1.453 19.1073C1.453 29.0253 9.49317 37.0655 19.4112 37.0655C29.3293 37.0655 37.3695 29.0253 37.3695 19.1073Z" stroke="white" stroke-width="1.5"/>
<path d="M28.4575 14.7978C27.8531 15.0455 27.204 15.2121 26.5226 15.2879C27.2178 14.9034 27.752 14.2926 28.0039 13.5677C27.3533 13.9237 26.6318 14.1818 25.8652 14.3224C25.25 13.7178 24.3746 13.3404 23.4058 13.3404C21.5452 13.3404 20.0372 14.732 20.0372 16.4494C20.0372 16.6918 20.0669 16.9304 20.1244 17.1577C17.3248 17.0275 14.8423 15.7903 13.1808 13.91C12.8909 14.3688 12.7246 14.9024 12.7246 15.4721C12.7246 16.5512 13.3193 17.502 14.2235 18.0598C13.6713 18.0441 13.1516 17.9035 12.6974 17.6705C12.6969 17.6833 12.6969 17.6961 12.6969 17.7103C12.6969 19.217 13.8586 20.4727 15.3995 20.7586C15.1168 20.8297 14.8192 20.8671 14.5124 20.8671C14.2953 20.8671 14.0839 20.8486 13.8786 20.8117C14.3071 22.0471 15.5514 22.9462 17.0256 22.9704C15.8726 23.8047 14.42 24.3018 12.8421 24.3018C12.5702 24.3018 12.3018 24.2871 12.0386 24.2573C13.5292 25.1394 15.3 25.6546 17.2022 25.6546C23.3987 25.6546 26.7868 20.9177 26.7868 16.8097C26.7868 16.6757 26.7837 16.5408 26.7776 16.4073C27.4354 15.9688 28.0055 15.4214 28.4575 14.7978Z" fill="white"/>
</svg>
