<svg width="43" height="40" viewBox="0 0 43 40" fill="none" xmlns="http://www.w3.org/2000/svg">
<g clip-path="url(#clip0_37_283)">
<path d="M38.0328 19.1752C38.0328 9.25715 29.9927 1.21698 20.0746 1.21698C10.1566 1.21698 2.11639 9.25715 2.11639 19.1752C2.11639 29.0933 10.1566 37.1334 20.0746 37.1334C29.9927 37.1334 38.0328 29.0933 38.0328 19.1752Z" stroke="#E17BE3" stroke-width="1.5"/>
<path d="M29.1209 14.8657C28.5165 15.1134 27.8674 15.28 27.1859 15.3558C27.8812 14.9713 28.4154 14.3605 28.6673 13.6356C28.0167 13.9917 27.2952 14.2497 26.5286 14.3904C25.9134 13.7857 25.038 13.4083 24.0692 13.4083C22.2086 13.4083 20.7005 14.7999 20.7005 16.5173C20.7005 16.7597 20.7303 16.9984 20.7878 17.2257C17.9882 17.0955 15.5057 15.8582 13.8442 13.9779C13.5542 14.4368 13.388 14.9704 13.388 15.54C13.388 16.6191 13.9827 17.5699 14.8868 18.1277C14.3347 18.112 13.815 17.9714 13.3608 17.7385C13.3603 17.7512 13.3603 17.764 13.3603 17.7782C13.3603 19.2849 14.522 20.5406 16.0629 20.8266C15.7802 20.8976 15.4826 20.935 15.1758 20.935C14.9587 20.935 14.7473 20.9166 14.542 20.8796C14.9705 22.115 16.2148 23.0141 17.689 23.0383C16.536 23.8726 15.0834 24.3698 13.5055 24.3698C13.2336 24.3698 12.9652 24.3551 12.702 24.3253C14.1926 25.2074 15.9634 25.7225 17.8656 25.7225C24.062 25.7225 27.4502 20.9857 27.4502 16.8777C27.4502 16.7436 27.4471 16.6087 27.4409 16.4752C28.0988 16.0367 28.6689 15.4894 29.1209 14.8657Z" fill="#E17BE3"/>
</g>
<defs>
<clipPath id="clip0_37_283">
<rect width="41.3744" height="39.0679" fill="white" transform="translate(0.663391 0.0679321)"/>
</clipPath>
</defs>
</svg>
