<svg width="43" height="40" viewBox="0 0 43 40" fill="none" xmlns="http://www.w3.org/2000/svg">
<g clip-path="url(#clip0_154_79)">
<path d="M38.0328 19.2431C38.0328 9.32508 29.9927 1.28491 20.0746 1.28491C10.1566 1.28491 2.11639 9.32508 2.11639 19.2431C2.11639 29.1612 10.1566 37.2014 20.0746 37.2014C29.9927 37.2014 38.0328 29.1612 38.0328 19.2431Z" stroke="#FF52C1" stroke-width="1.5"/>
<path d="M29.1209 14.9337C28.5165 15.1813 27.8674 15.348 27.1859 15.4237C27.8812 15.0393 28.4154 14.4285 28.6673 13.7035C28.0167 14.0596 27.2952 14.3176 26.5286 14.4583C25.9134 13.8536 25.038 13.4763 24.0692 13.4763C22.2086 13.4763 20.7005 14.8678 20.7005 16.5852C20.7005 16.8277 20.7303 17.0663 20.7878 17.2936C17.9882 17.1634 15.5057 15.9261 13.8442 14.0459C13.5542 14.5047 13.388 15.0383 13.388 15.6079C13.388 16.687 13.9827 17.6378 14.8868 18.1956C14.3347 18.18 13.815 18.0394 13.3608 17.8064C13.3603 17.8192 13.3603 17.832 13.3603 17.8462C13.3603 19.3528 14.522 20.6085 16.0629 20.8945C15.7802 20.9655 15.4826 21.003 15.1758 21.003C14.9587 21.003 14.7473 20.9845 14.542 20.9476C14.9705 22.1829 16.2148 23.0821 17.689 23.1062C16.536 23.9405 15.0834 24.4377 13.5055 24.4377C13.2336 24.4377 12.9652 24.423 12.702 24.3932C14.1926 25.2753 15.9634 25.7905 17.8656 25.7905C24.062 25.7905 27.4502 21.0536 27.4502 16.9456C27.4502 16.8116 27.4471 16.6766 27.4409 16.5431C28.0988 16.1047 28.6689 15.5573 29.1209 14.9337Z" fill="#FF52C1"/>
</g>
<defs>
<clipPath id="clip0_154_79">
<rect width="41.3744" height="39.0679" fill="white" transform="translate(0.663391 0.135864)"/>
</clipPath>
</defs>
</svg>
